<svg xmlns="http://www.w3.org/2000/svg" width="451" height="442" viewBox="0 0 451 442">
<g>
<path d="M 202.00 402.27 C198.43,400.87 190.77,397.95 185.00,395.76 C157.96,385.54 152.22,383.40 149.75,382.62 C148.11,382.10 148.00,377.97 148.00,314.53 C148.00,271.37 148.35,247.00 148.97,247.00 C149.51,247.00 157.72,249.87 167.22,253.37 C176.73,256.88 190.12,261.79 197.00,264.28 L 209.50 268.82 L 210.09 273.66 C211.14,282.19 210.58,404.32 209.49,404.57 C208.95,404.69 205.57,403.66 202.00,402.27 ZM 225.69 397.34 C225.39,393.03 225.23,362.52 225.33,329.54 L 225.50 269.59 L 237.50 265.20 C244.10,262.79 257.97,257.71 268.31,253.91 C278.66,250.11 287.55,247.00 288.07,247.00 C288.66,247.00 288.92,272.70 288.76,314.59 L 288.50 382.19 L 285.00 383.46 C279.86,385.33 261.63,392.13 244.50,398.56 C236.25,401.66 228.76,404.42 227.86,404.69 C226.47,405.10 226.14,403.99 225.69,397.34 ZM 105.00 366.82 C99.22,364.64 92.93,362.26 91.00,361.52 C89.07,360.79 84.97,359.21 81.89,358.03 C73.75,354.91 68.36,348.67 66.16,339.81 C64.72,333.98 64.49,218.00 65.92,218.00 C66.80,218.00 73.47,220.33 102.35,230.73 C109.42,233.27 115.38,235.84 115.61,236.43 C115.83,237.02 115.90,267.48 115.76,304.13 L 115.50 370.77 L 105.00 366.82 ZM 320.00 303.62 L 320.00 236.24 L 323.25 235.03 C325.04,234.36 328.08,233.22 330.00,232.49 C341.25,228.24 357.25,222.46 362.00,220.94 C365.02,219.97 368.29,218.86 369.25,218.48 C370.90,217.82 371.00,221.07 371.00,278.27 C371.00,343.13 371.01,343.01 365.88,349.95 C362.15,354.99 357.29,357.57 338.57,364.43 C328.70,368.04 320.49,371.00 320.32,371.00 C320.14,371.00 320.00,340.68 320.00,303.62 ZM 206.00 251.99 C201.27,250.06 189.34,245.68 164.67,236.83 L 149.85 231.51 L 150.49 227.25 C153.07,210.01 164.62,191.10 173.59,189.42 C178.40,188.52 209.42,199.19 211.59,202.49 C212.77,204.30 212.99,209.13 212.77,229.02 C212.60,244.17 212.12,253.43 211.50,253.58 C210.95,253.72 208.48,253.00 206.00,251.99 ZM 224.00 229.55 C224.00,213.78 224.39,204.23 225.11,202.66 C226.04,200.63 229.05,199.28 243.46,194.47 C254.95,190.64 261.53,188.92 263.17,189.33 C267.10,190.31 275.56,199.19 278.93,205.86 C280.63,209.23 283.20,216.08 284.63,221.09 C286.83,228.76 287.03,230.38 285.87,231.44 C285.12,232.14 280.23,234.17 275.00,235.96 C269.77,237.76 261.67,240.70 257.00,242.49 C246.42,246.56 225.50,254.00 224.64,254.00 C224.29,254.00 224.00,243.00 224.00,229.55 ZM 131.49 232.39 C129.89,228.20 128.04,224.57 127.38,224.32 C126.72,224.06 124.81,224.56 123.14,225.43 C121.47,226.29 119.66,227.00 119.11,227.00 C116.59,227.00 123.51,204.61 129.64,192.88 C137.18,178.49 145.66,171.07 168.14,159.23 C179.82,153.08 186.75,149.00 187.89,147.63 C188.70,146.65 187.75,146.06 183.72,145.06 C172.85,142.33 153.08,135.54 142.00,130.73 C113.66,118.43 99.79,103.97 99.59,86.50 C99.50,78.85 101.80,72.70 108.59,62.50 C115.22,52.54 121.91,45.92 128.85,42.46 C133.54,40.12 135.14,39.84 141.93,40.15 C148.89,40.46 150.23,40.87 155.24,44.20 C161.64,48.44 172.67,61.24 183.96,77.50 C190.85,87.43 201.26,102.66 206.33,110.23 L 211.50 117.95 L 218.16 117.98 L 224.81 118.00 L 231.73 107.75 C235.54,102.11 240.16,95.25 242.01,92.50 C256.90,70.36 272.01,50.76 277.29,46.74 C286.96,39.37 297.77,37.82 307.58,42.38 C316.64,46.60 329.57,62.09 334.20,74.28 C336.44,80.18 336.83,89.49 335.10,95.74 C331.88,107.38 319.52,119.12 301.00,128.15 C289.51,133.75 259.44,144.08 248.50,146.18 C246.01,146.66 245.31,146.21 269.90,160.10 C280.02,165.82 290.65,172.63 293.52,175.23 C302.87,183.71 309.46,195.79 315.45,215.43 C318.82,226.49 318.52,227.58 312.79,225.02 L 308.50 223.09 L 306.88 227.85 C304.81,233.92 302.18,239.00 301.12,239.00 C300.66,239.00 299.49,235.29 298.52,230.75 C297.54,226.21 295.26,218.23 293.44,213.00 C286.35,192.58 281.45,187.46 255.15,172.94 C244.89,167.28 232.30,160.26 227.18,157.33 L 217.85 152.01 L 213.68 154.87 C211.38,156.44 203.43,161.01 196.00,165.02 C160.53,184.16 153.96,189.15 147.73,201.59 C143.92,209.21 140.17,220.37 137.42,232.25 C136.44,236.51 135.36,240.00 135.01,240.00 C134.67,240.00 133.09,236.58 131.49,232.39 ZM 195.00 127.46 C195.00,127.16 193.29,124.57 191.21,121.71 C189.13,118.84 185.68,113.85 183.56,110.61 C181.44,107.36 176.64,100.39 172.90,95.11 C169.16,89.82 164.39,83.06 162.30,80.08 C153.23,67.13 143.74,58.00 139.34,58.00 C136.39,58.00 127.67,66.82 123.10,74.43 C114.69,88.44 119.46,98.77 139.04,108.96 C155.76,117.66 195.00,130.63 195.00,127.46 ZM 254.00 125.43 C259.23,124.00 265.70,121.98 268.38,120.92 C271.07,119.86 273.80,119.00 274.45,119.00 C276.62,119.00 294.35,111.02 301.13,106.99 C313.39,99.71 319.69,89.79 317.01,82.00 C315.23,76.84 309.42,68.32 303.92,62.83 C297.00,55.91 295.29,56.16 286.33,65.44 C279.63,72.39 276.70,76.17 266.50,91.04 C264.30,94.25 260.52,99.71 258.10,103.18 C241.06,127.63 240.83,128.00 242.68,128.01 C243.68,128.01 248.77,126.85 254.00,125.43 ZM 328.00 203.02 C328.00,194.93 327.70,183.48 327.34,177.58 C326.74,167.76 326.48,166.71 324.32,165.29 C322.11,163.84 295.26,153.75 284.79,150.44 C278.96,148.59 278.08,147.36 281.99,146.50 C288.08,145.16 308.26,136.98 316.85,132.36 L 325.68 127.61 L 332.09 129.76 C335.62,130.94 344.12,133.77 351.00,136.06 C377.32,144.82 379.87,146.11 382.10,151.82 C382.59,153.09 383.00,162.44 383.00,172.60 C383.00,189.12 382.79,191.50 381.00,195.01 C379.89,197.17 378.11,199.41 377.02,199.99 C375.16,200.98 344.58,212.14 333.25,215.96 L 328.00 217.73 L 328.00 203.02 ZM 96.00 213.28 C90.78,211.35 83.57,208.63 80.00,207.25 C76.43,205.86 70.63,203.90 67.11,202.89 C54.76,199.35 54.00,197.58 54.00,172.20 C54.00,144.81 51.57,147.55 86.00,136.04 C92.88,133.75 101.47,130.95 105.10,129.82 L 111.69 127.78 L 115.89 130.43 C122.58,134.66 147.57,145.13 154.79,146.74 C158.08,147.47 156.98,149.27 152.42,150.61 C146.72,152.29 115.24,163.80 112.86,165.08 C108.74,167.28 108.05,171.49 108.13,193.83 C108.21,213.53 107.90,217.15 106.19,216.90 C105.81,216.84 101.22,215.21 96.00,213.28 Z" fill="rgb(254,254,254)"/>
</g>
</svg>